<?xml version="1.0" encoding="UTF-8" standalone="no"?>
<!-- Created with Inkscape (http://www.inkscape.org/) -->

<svg
   width="192pt"
   height="192pt"
   viewBox="0 0 67.733332 67.733332"
   version="1.1"
   id="svg5"
   inkscape:version="1.2.2 (b0a8486541, 2022-12-01)"
   sodipodi:docname="24pt_clip.svg"
   xmlns:inkscape="http://www.inkscape.org/namespaces/inkscape"
   xmlns:sodipodi="http://sodipodi.sourceforge.net/DTD/sodipodi-0.dtd"
   xmlns="http://www.w3.org/2000/svg"
   xmlns:svg="http://www.w3.org/2000/svg">
  <sodipodi:namedview
     id="namedview7"
     pagecolor="#ffffff"
     bordercolor="#000000"
     borderopacity="0.25"
     inkscape:showpageshadow="2"
     inkscape:pageopacity="0"
     inkscape:pagecheckerboard="true"
     inkscape:deskcolor="#d1d1d1"
     inkscape:document-units="pt"
     showgrid="false"
     inkscape:zoom="2.2390143"
     inkscape:cx="71.683331"
     inkscape:cy="142.69672"
     inkscape:window-width="1280"
     inkscape:window-height="828"
     inkscape:window-x="283"
     inkscape:window-y="155"
     inkscape:window-maximized="0"
     inkscape:current-layer="layer1" />
  <defs
     id="defs2" />
  <g
     inkscape:label="Layer 1"
     inkscape:groupmode="layer"
     id="layer1">
    <path
       id="path4908"
       style="vector-effect:non-scaling-stroke;fill:#ffffff;fill-opacity:1;fill-rule:evenodd;stroke:none;stroke-width:0.264583;stroke-linecap:round;stroke-linejoin:round;stroke-dasharray:none;stroke-opacity:1;-inkscape-stroke:hairline"
       class="UnoptimicedTransforms"
       d="M 33.866666 0 L 29.667439 1.9683553 L 25.10131 1.1539347 L 21.554239 4.1423827 L 16.933333 4.5371907 L 14.280782 8.3416095 L 9.919291 9.919291 L 8.3416095 14.280782 L 4.5371907 16.933333 L 4.1423827 21.554239 L 1.1539347 25.10131 L 1.9683553 29.667439 L 0 33.866666 L 1.9683553 38.065893 L 1.1539347 42.632022 L 4.1423827 46.179093 L 4.5371907 50.799999 L 8.3416095 53.45255 L 9.919291 57.814041 L 14.280782 59.391722 L 16.933333 63.196141 L 21.554239 63.590949 L 25.10131 66.579397 L 29.667439 65.764977 L 33.866666 67.733332 L 38.065893 65.764977 L 42.632022 66.579397 L 46.179093 63.590949 L 50.799999 63.196141 L 53.45255 59.391722 L 57.814041 57.814041 L 59.391722 53.45255 L 63.196141 50.799999 L 63.590949 46.179093 L 66.579397 42.632022 L 65.764977 38.065893 L 67.733332 33.866666 L 65.764977 29.667439 L 66.579397 25.10131 L 63.590949 21.554239 L 63.196141 16.933333 L 59.391722 14.280782 L 57.814041 9.919291 L 53.45255 8.3416095 L 50.799999 4.5371907 L 46.179093 4.1423827 L 42.632022 1.1539347 L 38.065893 1.9683553 L 33.866666 0 z M 33.866666 7.0440143 L 37.192561 8.6030923 L 40.808878 7.9576537 L 43.618009 10.324434 L 47.27825 10.637593 L 49.378897 13.650846 L 52.833467 14.899865 L 54.082486 18.354435 L 57.095739 20.455082 L 57.408898 24.115323 L 59.775678 26.924454 L 59.13024 30.540771 L 60.689318 33.866666 L 59.13024 37.192561 L 59.775678 40.808878 L 57.408898 43.618009 L 57.095739 47.27825 L 54.082486 49.378897 L 52.833467 52.833467 L 49.378897 54.082486 L 47.27825 57.095739 L 43.618009 57.408898 L 40.808878 59.775678 L 37.192561 59.13024 L 33.866666 60.689318 L 30.540771 59.13024 L 26.924454 59.775678 L 24.115323 57.408898 L 20.455082 57.095739 L 18.354435 54.082486 L 14.899865 52.833467 L 13.650846 49.378897 L 10.637593 47.27825 L 10.324434 43.618009 L 7.9576537 40.808878 L 8.6030923 37.192561 L 7.0440143 33.866666 L 8.6030923 30.540771 L 7.9576537 26.924454 L 10.324434 24.115323 L 10.637593 20.455082 L 13.650846 18.354435 L 14.899865 14.899865 L 18.354435 13.650846 L 20.455082 10.637593 L 24.115323 10.324434 L 26.924454 7.9576537 L 30.540771 8.6030923 L 33.866666 7.0440143 z " />
  </g>
</svg>
